<svg width="17" height="17" viewBox="0 0 17 17" fill="none" xmlns="http://www.w3.org/2000/svg">
<path d="M7.76953 9.67436V15.6119H3.55273C2.77048 15.6117 2.13673 14.9772 2.13672 14.1949V9.67436H7.76953ZM14.8643 14.1949C14.8642 14.9773 14.2297 15.6119 13.4473 15.6119H9.04395V9.67436H14.8643V14.1949ZM9.82031 2.25249C10.8583 1.59117 12.2361 1.89621 12.8975 2.93413C13.5587 3.97217 13.2528 5.34994 12.2148 6.01128C12.1855 6.02997 12.1538 6.04667 12.1221 6.06499H14.792C15.1832 6.06499 15.5 6.38277 15.5 6.77397V7.91069C15.5 8.10801 15.4084 8.28216 15.2676 8.39897H9.04395V5.94194H7.76953V8.39897H1.73242C1.59152 8.28216 1.50001 8.10788 1.5 7.91069V6.77397C1.5 6.38288 1.81696 6.06517 2.20801 6.06499H4.88086C4.8489 6.04656 4.81663 6.03008 4.78711 6.01128C3.7495 5.34986 3.44443 3.97202 4.10547 2.93413C4.76673 1.89647 6.14377 1.59154 7.18164 2.25249C7.61039 2.52566 8.11867 3.05736 8.50098 3.6187C8.88324 3.05736 9.39154 2.52576 9.82031 2.25249ZM6.49707 3.32769C6.05301 3.04488 5.46358 3.17555 5.18066 3.61968C4.89792 4.06382 5.02875 4.65313 5.47266 4.93608C5.74115 5.1071 6.34233 5.32012 6.94434 5.39507C7.23919 5.43175 7.49034 5.42848 7.6709 5.39311C7.86149 5.35569 7.87828 5.30359 7.8623 5.32866C7.8471 5.35283 7.88714 5.31487 7.84082 5.12749C7.79662 4.9488 7.69217 4.72027 7.53418 4.46831C7.21182 3.95425 6.76554 3.49879 6.49707 3.32769ZM11.8223 3.61968C11.5394 3.17567 10.9499 3.04501 10.5059 3.32769C10.2373 3.49884 9.79011 3.95424 9.46777 4.46831C9.30987 4.72019 9.20629 4.94885 9.16211 5.12749C9.11558 5.31571 9.1554 5.35347 9.13965 5.32866C9.12379 5.30384 9.14106 5.35575 9.33105 5.39311C9.51154 5.42855 9.76274 5.43171 10.0576 5.39507C10.6597 5.32016 11.2617 5.10713 11.5303 4.93608C11.974 4.65312 12.1049 4.06376 11.8223 3.61968Z" fill="#262F56"/>
</svg>
