<svg width="16" height="17" viewBox="0 0 16 17" fill="none" xmlns="http://www.w3.org/2000/svg">
<path d="M7.68323 2.4339C7.71245 2.37487 7.75758 2.32519 7.81353 2.29045C7.86949 2.25571 7.93404 2.2373 7.9999 2.2373C8.06576 2.2373 8.13031 2.25571 8.18626 2.29045C8.24222 2.32519 8.28735 2.37487 8.31657 2.4339L9.85657 5.55323C9.95802 5.75855 10.1078 5.93617 10.293 6.07087C10.4782 6.20557 10.6933 6.29331 10.9199 6.32657L14.3639 6.83057C14.4292 6.84002 14.4905 6.86755 14.5409 6.91003C14.5913 6.95252 14.6289 7.00827 14.6492 7.07097C14.6696 7.13368 14.6721 7.20084 14.6563 7.26486C14.6405 7.32888 14.6071 7.3872 14.5599 7.43323L12.0692 9.85857C11.905 10.0186 11.7821 10.2162 11.7111 10.4343C11.6402 10.6524 11.6233 10.8845 11.6619 11.1106L12.2499 14.5372C12.2614 14.6025 12.2544 14.6696 12.2296 14.731C12.2048 14.7924 12.1632 14.8456 12.1096 14.8846C12.056 14.9235 11.9926 14.9466 11.9265 14.9512C11.8604 14.9558 11.7944 14.9417 11.7359 14.9106L8.65723 13.2919C8.45438 13.1854 8.22869 13.1297 7.99957 13.1297C7.77045 13.1297 7.54475 13.1854 7.3419 13.2919L4.2639 14.9106C4.20545 14.9415 4.1395 14.9554 4.07353 14.9507C4.00757 14.946 3.94424 14.9229 3.89076 14.884C3.83728 14.8452 3.79579 14.792 3.771 14.7307C3.74622 14.6694 3.73914 14.6024 3.75056 14.5372L4.3379 11.1112C4.3767 10.8851 4.35989 10.6528 4.28892 10.4346C4.21796 10.2164 4.09497 10.0187 3.93056 9.85857L1.4399 7.4339C1.39229 7.38792 1.35856 7.3295 1.34254 7.26528C1.32652 7.20107 1.32886 7.13365 1.34928 7.07069C1.36971 7.00774 1.40741 6.95179 1.45808 6.90922C1.50876 6.86665 1.57037 6.83917 1.6359 6.8299L5.07923 6.32657C5.30607 6.29357 5.52149 6.20594 5.70695 6.07123C5.89242 5.93651 6.04237 5.75875 6.1439 5.55323L7.68323 2.4339Z" fill="#F3BB44" stroke="#F3BB44" stroke-width="2" stroke-linecap="round" stroke-linejoin="round"/>
</svg>
